<svg width="48" height="48" viewBox="0 0 48 48" fill="none" xmlns="http://www.w3.org/2000/svg">
  <rect width="48" height="48" rx="10" fill="#1D1D1D"/>
  <path d="M24 12C22.3431 12 21 13.3431 21 15C21 16.6569 22.3431 18 24 18C25.6569 18 27 16.6569 27 15C27 13.3431 25.6569 12 24 12Z" fill="#00A3FF"/>
  <path d="M16 30C14.3431 30 13 31.3431 13 33C13 34.6569 14.3431 36 16 36C17.6569 36 19 34.6569 19 33C19 31.3431 17.6569 30 16 30Z" fill="#00A3FF"/>
  <path d="M32 30C30.3431 30 29 31.3431 29 33C29 34.6569 30.3431 36 32 36C33.6569 36 35 34.6569 35 33C35 31.3431 33.6569 30 32 30Z" fill="#00A3FF"/>
  <path d="M22.5 17.5L17.5 30.5" stroke="white" stroke-width="2" stroke-linecap="round"/>
  <path d="M25.5 17.5L30.5 30.5" stroke="white" stroke-width="2" stroke-linecap="round"/>
  <path d="M19 33H29" stroke="white" stroke-width="2" stroke-linecap="round"/>
</svg>